<svg width="18" height="18" viewBox="0 0 18 18" fill="none" xmlns="http://www.w3.org/2000/svg">
<path d="M5.8513 17.1059L5.86434 18L10.7039 12.9561C10.6886 13.0491 10.6706 13.142 10.6499 13.2344C10.6478 13.2435 10.6458 13.2525 10.6437 13.2615C10.4662 14.0334 10.1077 14.7467 9.60332 15.3452C9.39739 15.5896 9.16716 15.8148 8.91502 16.017C8.54281 16.3156 8.13218 16.5567 7.69682 16.7354C7.11494 16.9742 6.48887 17.1016 5.8513 17.1059ZM5.8513 17.1059L5.85739 18C5.66209 18.0005 5.46643 17.9911 5.27113 17.972C4.38457 17.8848 3.53031 17.5964 2.77309 17.1295L5.8513 17.1059Z" fill="black" stroke="#28262C" stroke-width="2"/>
</svg>
