<svg width="99" height="84" viewBox="0 0 99 84" fill="none" xmlns="http://www.w3.org/2000/svg">
<path d="M97.9495 20.6265C97.3064 17.1073 95.9135 13.8843 94.022 10.8619C91.9064 7.48174 89.1008 4.84954 85.5653 3.01042C82.532 1.43146 79.2982 0.529971 75.8964 0.175879C72.397 -0.189053 68.9374 0.0205119 65.5013 0.743149C62.2621 1.42424 59.3137 2.74666 56.6417 4.70501C53.8921 6.72117 51.5074 9.10045 49.4334 11.7995C49.213 12.0849 49.1227 12.0886 48.9023 11.7995C47.3739 9.7978 45.6685 7.95688 43.7553 6.31649C41.4194 4.31298 38.8558 2.67259 35.9165 1.69884C32.596 0.596815 29.1725 0.107228 24.3019 0.0981954C22.9126 0.0981954 20.1937 0.459514 17.5308 1.19841C14.0639 2.16133 10.9241 3.76016 8.23224 6.17558C5.25678 8.84392 3.25327 12.1789 1.77006 15.8372C0.375368 19.2698 -0.179257 22.8504 0.0501806 26.5576C0.196515 28.9242 0.610225 31.233 1.29131 33.5003C2.89376 38.8298 5.69037 43.5251 8.99463 47.9458C11.7099 51.5789 14.8191 54.8723 17.9499 58.1404C23.4564 63.8872 29.1833 69.4027 35.3366 74.4666C39.452 77.854 43.7011 81.0462 48.3079 83.7471C48.9113 84.1012 49.3594 84.0687 49.914 83.7417C52.0385 82.4879 54.1215 81.1673 56.1214 79.7238C62.4879 75.1297 68.3756 69.97 74.0121 64.5177C77.7969 60.8576 81.4589 57.08 84.9962 53.1795C87.7784 50.1101 90.3347 46.8673 92.5044 43.33C95.4745 38.4865 97.6532 33.354 98.2151 27.6325C98.4463 25.2857 98.374 22.948 97.9495 20.6301V20.6265ZM91.771 34.8083C91.4747 36.4541 90.0673 37.6916 88.389 37.7079C87.0594 37.7205 86.0007 37.1496 85.307 36.0006C85.1317 35.7098 84.9529 35.6267 84.6313 35.6285C80.104 35.6538 75.5766 35.6664 71.0511 35.6827C69.7883 35.6881 69.38 35.3972 68.9609 34.1995C68.2202 32.0894 67.4759 29.9811 66.6972 27.7716C66.372 29.0742 66.0685 30.2792 65.7686 31.4841C64.4119 36.9148 63.0588 42.3454 61.6984 47.776C61.3515 49.1635 60.0128 49.6657 58.9722 48.8166C58.7518 48.6378 58.6416 48.3921 58.5242 48.15C57.0265 45.021 55.5307 41.8883 54.033 38.7575C53.9626 38.6112 53.8867 38.4666 53.7692 38.2318C53.6067 38.8298 53.4639 39.3446 53.3284 39.8613C51.4315 47.1293 49.5364 54.3972 47.6413 61.6651C47.4733 62.3119 47.1589 62.8286 46.4652 63.0146C45.7173 63.2152 45.0217 62.9406 44.6839 62.2486C44.1943 61.2496 43.8691 60.1819 43.4789 59.1413C40.059 50.027 36.6464 40.911 33.2319 31.7949C33.1759 31.6467 33.109 31.5022 33.0061 31.2565C32.6935 32.252 32.4081 33.1426 32.1317 34.0387C31.0026 37.6808 29.8789 41.3247 28.7479 44.9668C28.4173 46.0308 27.9042 46.403 26.8022 46.403C23.825 46.403 20.8459 46.4066 17.8686 46.3976C17.5778 46.3976 17.3772 46.468 17.1767 46.7065C16.2066 47.8627 14.5842 48.2259 13.1534 47.6405C11.8292 47.0967 10.9331 45.6749 11.0054 44.2315C11.0812 42.7176 12.1381 41.3969 13.5924 40.9977C15.0431 40.6002 16.6492 41.144 17.417 42.4267C17.744 42.9723 18.0926 43.0843 18.6653 43.0753C20.9362 43.0445 23.2071 43.0554 25.478 43.0698C25.8032 43.0716 25.9477 42.9759 26.0453 42.6597C27.7344 37.1984 29.4362 31.7425 31.1362 26.2848C31.2573 25.9 31.3458 25.4971 31.6204 25.1791C32.493 24.1674 33.913 24.4294 34.4441 25.7157C34.753 26.4654 35.0186 27.2332 35.3022 27.9938C38.7221 37.1261 42.142 46.2585 45.5637 55.3926C45.6305 55.5715 45.7028 55.7467 45.8257 56.0592C46.0858 55.0819 46.3152 54.2382 46.5356 53.3909C48.2826 46.6812 50.0278 39.9697 51.7766 33.26C52.0891 32.0586 53.1044 31.5492 54.1504 32.0496C54.5931 32.261 54.7936 32.6675 54.9887 33.074C56.4809 36.2066 57.9678 39.341 59.4564 42.4755C59.4943 42.5568 59.5341 42.6363 59.6353 42.8404C59.955 41.5559 60.2459 40.3943 60.5349 39.2326C61.9567 33.5184 63.3785 27.8059 64.8021 22.0917C65.111 20.8542 65.9511 20.3049 66.9917 20.6446C67.5427 20.8234 67.8444 21.2299 68.0269 21.7502C69.2355 25.1918 70.4495 28.6315 71.6455 32.0767C71.7756 32.4525 71.9327 32.5988 72.3627 32.5988C76.4691 32.5844 80.5737 32.5988 84.6801 32.6169C84.998 32.6169 85.1895 32.5374 85.372 32.2574C86.297 30.8338 88.0548 30.29 89.6139 30.9151C91.1766 31.5383 92.0672 33.1498 91.7691 34.8083H91.771Z" fill="white"/>
</svg>
