<svg width="90" height="100" viewBox="0 0 90 100" fill="none" xmlns="http://www.w3.org/2000/svg">
<path d="M89.1309 63.6687C87.2857 59.7787 85.4463 55.885 83.6107 51.9912C81.8993 48.3576 80.1977 44.7182 78.4824 41.0866C78.3408 40.7859 78.3214 40.6047 78.6299 40.3772C79.2799 39.9011 79.8639 39.3421 80.4053 38.7446C82.4814 36.4584 83.1334 33.8927 81.8993 30.982C80.9486 28.7421 79.3614 27.2367 76.8875 26.774C75.2945 26.4752 73.7034 26.5504 72.122 26.8319C71.7825 26.8916 71.6777 26.7817 71.5535 26.5215C69.5491 22.2807 67.5351 18.0458 65.5307 13.8069C63.8058 10.1618 62.1351 6.48776 60.3035 2.89274C59.0772 0.489001 56.1977 -0.573117 53.5492 0.305878C51.0229 1.14439 49.4027 3.75825 49.8005 6.3374C49.8684 6.78075 49.9033 7.22989 49.9285 7.6771C50.1187 10.9328 49.4202 14.019 48.0406 16.9528C45.0913 23.2195 40.6887 28.3238 35.2635 32.6012C32.3705 34.8816 29.1496 36.6396 25.9034 38.3552C20.7712 41.0673 15.4838 43.4653 10.243 45.9596C7.78072 47.1316 5.61531 48.6814 3.85543 50.771C1.35823 53.728 0.0756728 57.1341 0 61.0394C0.0465679 61.6832 0.0620905 62.3753 0.149405 63.0596C0.632547 66.8261 2.21003 70.0742 4.92455 72.7516C7.74579 75.5332 11.1782 77.0464 15.1152 77.4358C17.1777 77.6401 19.2054 77.3702 21.1981 76.8286C21.786 76.6686 22.2847 76.8131 22.6824 77.2661C22.861 77.4705 23.0181 77.6979 23.1656 77.9254C24.7896 80.4293 26.4021 82.9391 28.03 85.4392C30.6378 89.4468 33.1835 93.4928 35.8592 97.456C36.3715 98.2136 37.07 98.7803 37.8655 99.2294C39.4779 100.141 41.1718 100.149 42.9278 99.7422C45.2271 99.2082 46.9734 97.2825 47.2392 94.9385C47.443 93.1401 47.1054 91.4322 46.3913 89.7841C44.3967 85.1694 42.1536 80.6703 39.9979 76.1308C39.7243 75.5563 39.7224 75.5544 40.2948 75.2248C41.2999 74.6484 42.3069 74.0778 43.2519 73.4051C44.7246 72.3545 45.751 71.0804 45.4658 69.1316C45.3785 68.5282 45.3125 67.9152 45.0952 67.3466C44.8992 66.8338 45.1146 66.616 45.5453 66.4618C45.621 66.4348 45.6928 66.3982 45.7704 66.3731C49.329 65.2397 52.9671 64.4744 56.6925 64.1641C60.3093 63.8634 63.9202 63.9636 67.5196 64.434C71.9047 65.0045 75.7698 66.7375 79.1227 69.6019C80.0502 70.3941 80.9059 71.2751 82.0196 71.8379C85.2813 73.4861 89.2687 71.5661 89.9129 67.9962C90.1884 66.4753 89.779 65.045 89.1251 63.6687H89.1309ZM73.847 30.6948C74.27 30.5888 74.7007 30.5348 74.9937 30.5252C76.5304 30.4404 77.5608 31.0803 78.1933 32.4162C78.7754 33.6499 78.593 34.8218 77.652 35.8223C77.3551 36.1384 77.0388 36.4333 76.6876 36.6936C76.5266 36.8131 76.4451 36.8381 76.3422 36.6184C75.4613 34.739 74.5726 32.8615 73.6723 30.9917C73.554 30.7469 73.6898 30.7353 73.8489 30.6948H73.847ZM19.2034 73.1102C18.1925 73.4649 17.1215 73.5246 16.0582 73.5439C12.2124 73.4263 9.05745 71.9093 6.69219 68.9022C5.2059 67.0131 4.35216 64.831 4.07469 62.4408C3.71185 59.3065 4.51903 56.4729 6.35458 53.9226C7.63325 52.1492 9.38149 50.9387 11.2927 49.917C14.3565 48.2805 17.5619 46.9369 20.6761 45.4064C21.0138 45.2406 21.0448 45.4546 21.1379 45.6493C23.5614 50.7691 25.9849 55.8869 28.4103 61.0047C29.4445 63.1887 30.4767 65.3727 31.5226 67.5509C31.6623 67.842 31.6836 67.9731 31.3305 68.1388C27.3742 70.0067 23.3286 71.6587 19.2015 73.1102H19.2034ZM42.7998 91.3705C43.151 92.1127 43.4692 92.8644 43.4925 93.7029C43.4963 94.5549 43.1684 95.2277 42.3826 95.6306C41.5191 96.072 40.646 96.2243 39.7709 95.6595C39.2742 95.3395 38.89 94.9135 38.5718 94.4219C34.4311 88.0261 30.2905 81.6302 26.1382 75.2402C25.9519 74.953 26.0431 74.8836 26.2895 74.7679C28.5034 73.7347 30.7173 72.6996 32.9216 71.6452C33.2184 71.5025 33.3271 71.5816 33.4687 71.8341C34.4893 73.6518 35.3062 75.5679 36.2007 77.4454C38.4107 82.0832 40.6014 86.7288 42.8017 91.3705H42.7998ZM40.7527 70.6023C39.9436 71.0823 39.0336 71.3117 38.1527 71.6124C37.9412 71.6837 37.8985 71.5584 37.8345 71.4331C37.5861 70.9493 37.3455 70.4616 37.0874 69.9816C36.9904 69.8004 37.004 69.7156 37.2077 69.627C38.3273 69.1412 39.4411 68.64 40.5568 68.1446C40.6615 68.0984 40.7585 68.0386 40.8342 68.1947C41.069 68.6689 41.3135 69.1393 41.3484 69.6347C41.3542 70.1185 41.0942 70.398 40.7508 70.6023H40.7527ZM85.846 67.7148C85.6267 68.0078 85.3861 68.2352 84.9573 68.1196C84.6643 68.0405 84.35 68.0386 84.0473 67.9943C83.4923 67.9133 83.015 67.6993 82.592 67.3061C79.1712 64.1294 75.1567 62.0206 70.5969 61.0163C66.7531 60.1701 62.8434 59.8828 58.9026 60.066C51.1374 60.4284 43.801 62.5237 36.6664 65.4498C36.3249 65.5905 35.9679 65.7023 35.64 65.87C35.2985 66.0454 35.1588 65.9491 35.0016 65.6156C33.0748 61.5175 31.1326 57.4251 29.1922 53.3328C27.8146 50.4259 26.4409 47.5172 25.0496 44.618C24.8925 44.2903 24.939 44.1361 25.2359 43.9318C28.8993 41.395 32.6693 39.0125 36.2841 36.4025C40.549 33.3241 44.4937 29.9122 47.6331 25.6637C50.4214 21.8875 52.4335 17.7508 53.3707 13.1419C53.8402 10.8365 53.9043 8.49441 53.8073 6.14657C53.7976 5.93838 53.7898 5.7302 53.7976 5.52202C53.8267 4.55628 54.562 3.88932 55.6797 3.9433C56.2831 3.94715 56.6615 4.43291 56.9409 5.02084C58.0003 7.24724 59.05 9.47557 60.1056 11.7039C68.4897 29.4072 76.8719 47.1124 85.2561 64.8156C85.5375 65.4093 85.8052 66.0088 85.9488 66.6526C86.0303 67.015 86.0943 67.3851 85.846 67.7167V67.7148Z" fill="white"/>
</svg>
